HIERARCHY
ROOT Hips
{
	OFFSET 4.188235 106.529800 -2.953774
	CHANNELS 6 Xposition Yposition Zposition Xrotation Yrotation Zrotation
	JOINT Chest
	{
		OFFSET -1.204385 13.334557 2.625505
		CHANNELS 3 Xrotation Yrotation Zrotation
		JOINT Chest2
		{
			OFFSET -4.525714 20.328300 5.034380
			CHANNELS 3 Xrotation Yrotation Zrotation
			JOINT Chest3
			{
				OFFSET -0.411860 14.822983 1.711532
				CHANNELS 3 Xrotation Yrotation Zrotation
				JOINT Neck
				{
					OFFSET -0.492434 16.854324 3.782266
					CHANNELS 3 Xrotation Yrotation Zrotation
					JOINT Head
					{
						OFFSET -3.725856 9.015030 3.830772
						CHANNELS 3 Xrotation Yrotation Zrotation
						End Site
						{
							OFFSET -3.678101 9.051987 3.789552
						}
					}
				}
				JOINT LeftCollar
				{
					OFFSET 1.519857 11.947144 7.533942
					CHANNELS 3 Xrotation Yrotation Zrotation
					JOINT LeftUpArm
					{
						OFFSET 17.436764 1.207886 1.731925
						CHANNELS 3 Xrotation Yrotation Zrotation
						JOINT LeftLowArm
						{
							OFFSET 32.301193 -4.427063 8.761382
							CHANNELS 3 Xrotation Yrotation Zrotation
							JOINT LeftHand
							{
								OFFSET -14.066040 -26.515747 -0.095795
								CHANNELS 3 Xrotation Yrotation Zrotation
								End Site
								{
									OFFSET -3.074211 -5.795166 -0.020933
								}
							}
						}
					}
				}
				JOINT RightCollar
				{
					OFFSET -5.476924 12.776047 2.929917
					CHANNELS 3 Xrotation Yrotation Zrotation
					JOINT RightUpArm
					{
						OFFSET -4.862525 7.380859 -15.178116
						CHANNELS 3 Xrotation Yrotation Zrotation
						JOINT RightLowArm
						{
							OFFSET -23.109741 21.175308 -12.541145
							CHANNELS 3 Xrotation Yrotation Zrotation
							JOINT RightHand
							{
								OFFSET -6.964176 10.518860 27.236176
								CHANNELS 3 Xrotation Yrotation Zrotation
								End Site
								{
									OFFSET -1.522095 2.299026 5.952722
								}
							}
						}
					}
				}
			}
		}
	}
	JOINT LeftUpLeg
	{
		OFFSET 7.835347 -0.518303 6.225580
		CHANNELS 3 Xrotation Yrotation Zrotation
		JOINT LeftLowLeg
		{
			OFFSET -2.156544 -47.314034 0.849353
			CHANNELS 3 Xrotation Yrotation Zrotation
			JOINT LeftFoot
			{
				OFFSET 1.657150 -42.935463 -12.424489
				CHANNELS 3 Xrotation Yrotation Zrotation
				JOINT LeftToe
				{
					OFFSET -9.694597 -15.607664 14.898836
					CHANNELS 3 Xrotation Yrotation Zrotation
					End Site
					{
						OFFSET -10.241152 -1.013582 21.299068
					}
				}
			}
		}
	}
	JOINT RightUpLeg
	{
		OFFSET -7.835332 0.518112 -6.225620
		CHANNELS 3 Xrotation Yrotation Zrotation
		JOINT RightLowLeg
		{
			OFFSET -33.724125 -31.590714 10.426954
			CHANNELS 3 Xrotation Yrotation Zrotation
			JOINT RightFoot
			{
				OFFSET 43.767643 -4.240746 -8.184723
				CHANNELS 3 Xrotation Yrotation Zrotation
				JOINT RightToe
				{
					OFFSET 7.696434 -22.367001 0.197551
					CHANNELS 3 Xrotation Yrotation Zrotation
					End Site
					{
						OFFSET -6.243843 -21.412388 7.879097
					}
				}
			}
		}
	}
}
MOTION
Frames: 13
Frame Time: 0.033333
6.629641 98.693108 -4.921453 -0.222037 2.321417 4.575236 5.672169 -0.131199 5.122650 -2.736110 -1.085320 -0.280231 1.458999 -0.638574 -2.007918 -2.998150 -0.704043 -1.510027 0.000001 0.000000 -0.000001 -0.652856 2.022419 -2.524561 -0.340760 1.289834 -2.199289 3.391539 2.512440 -0.312067 0.000001 0.000000 0.000001 0.674791 2.920937 0.291648 -3.006385 -2.858567 -1.452060 2.422354 3.839658 -0.712760 -0.000000 0.000002 0.000000 -8.477329 1.045072 -12.259007 17.698612 -1.979303 9.279209 -9.362490 2.416826 -4.099245 -0.000001 -0.000000 -0.000001 1.055218 -0.433999 -8.952912 -10.856732 -4.686194 9.410968 -21.363003 -10.596987 -32.043788 -0.000000 -0.000005 -0.000005 
6.665293 98.562141 -4.959065 -0.300051 2.213186 4.479398 5.544686 -0.169845 5.337897 -2.348252 -1.066939 -0.071236 1.209814 -0.724203 -2.318987 -2.352273 0.136279 -1.621070 -0.000002 0.000001 -0.000003 -0.548221 1.990880 -2.947098 -0.911984 1.246047 -1.798226 3.783856 3.051554 -0.274845 -0.000001 0.000000 0.000003 0.386021 2.903295 0.489197 -3.277969 -2.760650 -1.795375 2.597627 3.855517 0.210733 -0.000000 0.000001 0.000001 -9.104331 1.101893 -12.047939 18.461467 -2.105152 8.898367 -9.133573 3.190027 -3.602271 -0.000000 -0.000000 -0.000001 1.489555 -0.647609 -8.904441 -11.701131 -5.068241 9.447060 -22.889231 -10.868660 -33.402214 -0.000002 -0.000006 0.000001 
6.697881 98.439514 -5.001887 -0.081236 2.482954 4.703564 5.544441 -0.165319 5.424703 -2.533784 -1.108030 -0.167732 1.288775 -0.608625 -2.252062 -2.439322 0.279184 -1.801723 0.000003 0.000000 -0.000001 -0.784951 1.413948 -2.860279 -1.200797 1.958411 -2.190532 3.810386 3.562613 0.021251 0.000002 0.000005 0.000000 0.383666 2.900852 0.028842 -3.563486 -2.290899 -1.988406 2.710280 3.680518 1.720643 -0.000000 0.000004 -0.000000 -9.127993 1.133116 -12.410416 18.585018 -2.195987 9.127513 -9.133708 3.139702 -3.727019 -0.000000 -0.000000 -0.000001 1.505279 -0.653808 -9.301914 -11.743394 -4.977232 9.611111 -24.133925 -11.086473 -33.720610 -0.000002 -0.000005 -0.000000 
6.725166 98.332916 -5.052988 -0.559413 2.801888 4.945755 6.284066 -0.051767 5.462456 -3.308623 -1.339247 -0.379333 1.767705 0.341659 -2.001868 -3.270343 -1.022678 -1.639566 0.000000 0.000002 0.000001 -0.386776 -0.016663 -2.750057 -0.839087 2.652410 -2.527633 3.872206 3.493134 0.171342 0.000001 0.000002 0.000005 0.584863 2.676700 -0.549320 -3.169580 -2.179622 -2.115158 2.624318 3.089700 2.588602 0.000002 0.000000 0.000000 -8.636695 1.117528 -12.828507 18.203771 -2.096632 9.522146 -9.037583 2.712259 -3.845928 -0.000000 0.000001 0.000000 1.859571 -0.850756 -9.554263 -11.659982 -5.038885 9.615154 -24.877014 -11.051262 -34.070203 -0.000003 -0.000004 -0.000000 
6.748768 98.228943 -5.099109 -0.318455 2.646265 5.004849 5.862237 -0.124740 5.417874 -3.031709 -1.204635 -0.323417 1.753525 0.129460 -2.009737 -2.885236 -0.197809 -1.848766 0.000002 0.000001 0.000002 -0.570994 0.400655 -2.890471 -1.080214 3.000133 -2.348290 3.962425 3.897274 0.525615 -0.000002 0.000000 0.000003 0.760452 3.047599 -0.480054 -3.311726 -2.016839 -2.214415 2.458037 3.079113 2.942210 0.000001 0.000002 -0.000001 -8.859426 1.086461 -13.026484 18.289058 -2.053983 9.726735 -9.051577 2.590054 -3.861128 -0.000000 0.000000 -0.000001 1.450583 -0.609158 -9.765915 -12.885685 -5.786543 9.643244 -25.464789 -11.127647 -35.264629 -0.000000 -0.000002 -0.000003 
6.769347 98.134979 -5.143806 -0.225664 2.735491 5.112846 6.109773 -0.090590 5.481449 -2.834308 -1.064655 -0.352093 1.340425 0.579873 -1.859238 -3.723237 -1.375794 -1.784653 -0.000001 -0.000002 0.000001 -0.274129 -1.141640 -2.555414 -0.987397 3.275214 -2.646861 3.594995 3.920517 1.034459 -0.000001 0.000000 0.000004 0.485182 2.587469 -0.694132 -3.130164 -1.756481 -2.214168 2.151742 2.708963 3.354565 -0.000000 0.000001 -0.000001 -8.854680 1.089722 -13.175540 18.479459 -1.975543 9.809408 -9.056536 2.788754 -3.705371 -0.000000 0.000001 -0.000001 1.767322 -0.794231 -9.972967 -12.680489 -5.726691 9.621256 -26.238025 -11.254122 -36.019938 -0.000001 -0.000004 0.000001 
6.786240 98.048370 -5.186213 -0.193846 2.874355 5.224004 6.159392 -0.124596 5.550023 -3.640095 -1.308217 -0.484610 2.138502 0.196464 -1.921181 -3.367612 -0.533857 -1.822618 0.000002 -0.000002 -0.000003 -0.597593 0.146598 -2.317151 -0.773195 2.043203 -2.732525 4.790833 4.584207 1.425914 0.000003 0.000002 0.000006 1.111768 3.083615 -0.605183 -2.943139 -1.708060 -1.655293 1.223134 2.552942 2.123631 0.000000 0.000002 0.000000 -8.818752 0.970908 -13.253369 18.494653 -2.053575 9.751988 -9.157384 2.842278 -3.692726 0.000000 -0.000000 -0.000001 2.316681 -0.998665 -10.183890 -12.567014 -5.607581 9.702052 -27.299588 -11.409733 -36.249894 -0.000002 -0.000003 -0.000001 
6.803352 97.972260 -5.231185 0.221442 2.657951 5.329817 6.049628 -0.157220 5.570433 -3.488704 -1.142135 -0.533325 1.869207 -0.211960 -1.935284 -2.856268 0.496585 -2.104945 -0.000001 -0.000008 -0.000001 -0.732233 1.005791 -2.303369 -0.710895 1.678408 -2.539422 5.722770 5.043625 1.432874 0.000001 0.000003 0.000003 1.032265 3.013276 -0.291398 -2.909385 -1.940192 -1.467119 1.160424 3.114676 0.654372 -0.000002 0.000002 -0.000000 -8.829479 0.932901 -13.328511 18.526132 -2.170527 9.585652 -9.439403 3.053200 -3.755340 0.000000 -0.000000 -0.000001 2.217000 -0.901714 -10.454379 -12.894386 -5.760238 9.732657 -27.367632 -11.339075 -36.490958 -0.000003 -0.000007 -0.000003 
6.819408 97.898682 -5.286644 0.666738 2.336221 5.491462 5.461959 -0.231925 5.414552 -3.326062 -1.053893 -0.566247 1.687959 -0.082983 -1.862386 -2.837091 0.664367 -2.271637 -0.000001 0.000001 -0.000003 -0.930424 1.192488 -2.289534 -1.099487 1.250269 -2.288079 7.305359 6.002641 1.289161 0.000001 0.000003 0.000008 0.871847 2.969679 -0.295487 -2.576060 -1.262813 -1.592431 0.796179 2.826979 0.953408 -0.000002 0.000000 -0.000000 -9.072759 0.963078 -13.433840 18.500641 -2.278211 9.295120 -9.510044 3.348032 -3.689369 0.000001 0.000002 -0.000001 2.008003 -0.794343 -10.612039 -12.513248 -5.466421 9.738255 -27.903749 -11.353555 -36.693791 -0.000001 -0.000005 -0.000000 
6.834864 97.832939 -5.345972 0.544755 2.424975 5.745757 5.516744 -0.223888 5.456497 -3.253945 -0.756836 -0.873871 1.522216 -0.524132 -1.825491 -2.797808 0.773326 -2.326618 -0.000001 -0.000001 -0.000001 -1.090507 1.227327 -2.151909 -1.214221 1.211167 -2.271393 8.978539 6.866461 1.045010 0.000001 0.000003 0.000005 1.432632 3.488740 -0.509319 -2.580176 -0.917580 -1.485271 0.415977 2.398628 1.284643 -0.000002 0.000001 -0.000000 -8.754717 0.974016 -13.704215 18.349595 -2.355867 9.391397 -9.652410 3.130418 -3.944214 0.000001 -0.000002 0.000000 1.729341 -0.659683 -10.864034 -12.085185 -5.175720 9.632026 -28.350614 -11.423226 -36.686736 -0.000003 -0.000006 -0.000005 
6.849363 97.780952 -5.392806 0.358361 2.440612 5.854149 5.707588 -0.195720 5.516372 -3.634401 -0.891826 -0.918306 1.858942 0.210527 -1.708522 -3.009049 0.290543 -2.172140 0.000001 -0.000003 -0.000003 -0.681767 -0.127576 -2.076997 -1.069224 1.678013 -2.213753 6.781094 5.330560 0.497413 0.000002 0.000005 0.000005 0.977070 2.750977 -0.712826 -2.737055 -1.199787 -1.360005 1.017956 2.766124 1.334181 -0.000002 0.000003 -0.000000 -8.972208 1.051230 -13.892534 18.698777 -2.333125 9.381471 -9.341219 3.624685 -3.439744 -0.000001 0.000002 -0.000001 1.885104 -0.772873 -10.923820 -11.127153 -4.610070 9.667840 -28.750933 -11.339129 -36.796428 -0.000001 -0.000006 0.000003 
6.864736 97.736198 -5.441743 -0.001108 2.521029 6.157968 6.083247 -0.106209 5.422709 -3.658990 -0.876206 -1.006119 1.975564 0.040406 -1.767876 -2.837252 0.360499 -2.205252 -0.000001 0.000000 -0.000001 -0.866391 -0.481250 -1.873571 -1.310916 1.676217 -1.984739 6.072074 4.646908 -0.285946 0.000003 0.000000 0.000003 1.143258 2.942873 -0.909383 -3.076291 -1.148757 -1.330943 1.401271 2.761434 1.976597 -0.000000 0.000003 0.000001 -9.064621 1.160596 -14.132515 18.756774 -2.171302 9.335754 -9.202964 3.408979 -3.429692 -0.000000 -0.000002 0.000000 2.059251 -0.960370 -11.188767 -11.532822 -4.945649 9.665115 -29.160448 -11.332837 -36.890866 -0.000003 -0.000003 0.000001 
6.881911 97.692360 -5.487927 0.147188 2.529650 6.190780 5.838590 -0.138091 5.410997 -3.790343 -0.961010 -1.068563 2.059518 0.429554 -1.652471 -2.821606 -0.073811 -2.138920 0.000001 -0.000002 0.000001 -0.805702 -1.145739 -1.766408 -1.524510 1.823564 -1.941469 4.996930 3.985796 -0.714811 -0.000001 -0.000003 0.000002 1.140029 2.890011 -1.131609 -3.012066 -0.829672 -1.440671 1.482820 2.445330 2.715136 0.000000 0.000001 -0.000000 -9.284229 1.333830 -14.160925 18.939266 -2.234955 9.217997 -8.851454 3.723741 -3.122634 -0.000001 -0.000002 -0.000001 1.910186 -0.983330 -11.323211 -11.823023 -5.144439 9.668555 -29.755610 -11.361663 -37.228854 -0.000002 -0.000006 0.000001 
